<mxfile host="app.diagrams.net" modified="2023-07-16T14:57:53.272Z" agent="Mozilla/5.0 (Windows NT 10.0; Win64; x64) AppleWebKit/537.36 (KHTML, like Gecko) Chrome/114.0.0.0 Safari/537.36" etag="VzKd2ODMxl9yPcxeOZAN" version="21.6.2" type="github">
  <diagram name="Trang-1" id="0ruJ7L7tMiI_ow8OvRCK">
    <mxGraphModel dx="1332" dy="661" grid="0" gridSize="10" guides="1" tooltips="1" connect="1" arrows="1" fold="1" page="0" pageScale="1" pageWidth="850" pageHeight="1100" math="0" shadow="0">
      <root>
        <mxCell id="0" />
        <mxCell id="1" parent="0" />
        <mxCell id="LV8KwwP7L7RR2j52ug8A-1" value="&lt;b&gt;Product&lt;/b&gt;" style="swimlane;fontStyle=0;childLayout=stackLayout;horizontal=1;startSize=26;fillColor=none;horizontalStack=0;resizeParent=1;resizeParentMax=0;resizeLast=0;collapsible=1;marginBottom=0;whiteSpace=wrap;html=1;fontSize=16;" vertex="1" parent="1">
          <mxGeometry x="289" y="174" width="159" height="254" as="geometry" />
        </mxCell>
        <mxCell id="LV8KwwP7L7RR2j52ug8A-2" value="&lt;b&gt;Order_ID&amp;nbsp;&lt;/b&gt;int primary key auto" style="text;strokeColor=none;fillColor=none;align=left;verticalAlign=top;spacingLeft=4;spacingRight=4;overflow=hidden;rotatable=0;points=[[0,0.5],[1,0.5]];portConstraint=eastwest;whiteSpace=wrap;html=1;fontSize=16;" vertex="1" parent="LV8KwwP7L7RR2j52ug8A-1">
          <mxGeometry y="26" width="159" height="46" as="geometry" />
        </mxCell>
        <mxCell id="LV8KwwP7L7RR2j52ug8A-3" value="&lt;b&gt;Product_type &lt;/b&gt;varchar&lt;b&gt;(&lt;/b&gt;255&lt;b&gt;) &lt;/b&gt;not null" style="text;strokeColor=none;fillColor=none;align=left;verticalAlign=top;spacingLeft=4;spacingRight=4;overflow=hidden;rotatable=0;points=[[0,0.5],[1,0.5]];portConstraint=eastwest;whiteSpace=wrap;html=1;fontSize=16;" vertex="1" parent="LV8KwwP7L7RR2j52ug8A-1">
          <mxGeometry y="72" width="159" height="47" as="geometry" />
        </mxCell>
        <mxCell id="LV8KwwP7L7RR2j52ug8A-4" value="&lt;b&gt;Product_description &lt;/b&gt;varchar(255) not null" style="text;strokeColor=none;fillColor=none;align=left;verticalAlign=top;spacingLeft=4;spacingRight=4;overflow=hidden;rotatable=0;points=[[0,0.5],[1,0.5]];portConstraint=eastwest;whiteSpace=wrap;html=1;fontSize=16;" vertex="1" parent="LV8KwwP7L7RR2j52ug8A-1">
          <mxGeometry y="119" width="159" height="45" as="geometry" />
        </mxCell>
        <mxCell id="LV8KwwP7L7RR2j52ug8A-9" value="&lt;b&gt;Order_price &lt;/b&gt;float default 0" style="text;strokeColor=none;fillColor=none;align=left;verticalAlign=top;spacingLeft=4;spacingRight=4;overflow=hidden;rotatable=0;points=[[0,0.5],[1,0.5]];portConstraint=eastwest;whiteSpace=wrap;html=1;fontSize=16;" vertex="1" parent="LV8KwwP7L7RR2j52ug8A-1">
          <mxGeometry y="164" width="159" height="45" as="geometry" />
        </mxCell>
        <mxCell id="LV8KwwP7L7RR2j52ug8A-10" value="&lt;b&gt;Status &lt;/b&gt;varchar(255) not null" style="text;strokeColor=none;fillColor=none;align=left;verticalAlign=top;spacingLeft=4;spacingRight=4;overflow=hidden;rotatable=0;points=[[0,0.5],[1,0.5]];portConstraint=eastwest;whiteSpace=wrap;html=1;fontSize=16;" vertex="1" parent="LV8KwwP7L7RR2j52ug8A-1">
          <mxGeometry y="209" width="159" height="45" as="geometry" />
        </mxCell>
        <mxCell id="LV8KwwP7L7RR2j52ug8A-11" value="&lt;b&gt;Customer&lt;/b&gt;" style="swimlane;fontStyle=0;childLayout=stackLayout;horizontal=1;startSize=26;fillColor=none;horizontalStack=0;resizeParent=1;resizeParentMax=0;resizeLast=0;collapsible=1;marginBottom=0;whiteSpace=wrap;html=1;" vertex="1" parent="1">
          <mxGeometry x="-142" y="231" width="140" height="134" as="geometry" />
        </mxCell>
        <mxCell id="LV8KwwP7L7RR2j52ug8A-12" value="&lt;b&gt;Customer_ID&amp;nbsp;&lt;/b&gt;int primary key auto&lt;br&gt;&lt;b&gt;&amp;nbsp;&lt;/b&gt;" style="text;strokeColor=none;fillColor=none;align=left;verticalAlign=top;spacingLeft=4;spacingRight=4;overflow=hidden;rotatable=0;points=[[0,0.5],[1,0.5]];portConstraint=eastwest;whiteSpace=wrap;html=1;" vertex="1" parent="LV8KwwP7L7RR2j52ug8A-11">
          <mxGeometry y="26" width="140" height="38" as="geometry" />
        </mxCell>
        <mxCell id="LV8KwwP7L7RR2j52ug8A-13" value="&lt;b&gt;Name &lt;/b&gt;varchar(255) not null" style="text;strokeColor=none;fillColor=none;align=left;verticalAlign=top;spacingLeft=4;spacingRight=4;overflow=hidden;rotatable=0;points=[[0,0.5],[1,0.5]];portConstraint=eastwest;whiteSpace=wrap;html=1;" vertex="1" parent="LV8KwwP7L7RR2j52ug8A-11">
          <mxGeometry y="64" width="140" height="34" as="geometry" />
        </mxCell>
        <mxCell id="LV8KwwP7L7RR2j52ug8A-14" value="&lt;b&gt;Address &lt;/b&gt;varchar(255) not null" style="text;strokeColor=none;fillColor=none;align=left;verticalAlign=top;spacingLeft=4;spacingRight=4;overflow=hidden;rotatable=0;points=[[0,0.5],[1,0.5]];portConstraint=eastwest;whiteSpace=wrap;html=1;" vertex="1" parent="LV8KwwP7L7RR2j52ug8A-11">
          <mxGeometry y="98" width="140" height="36" as="geometry" />
        </mxCell>
        <mxCell id="LV8KwwP7L7RR2j52ug8A-15" value="&lt;b&gt;Sales_Order&lt;/b&gt;" style="swimlane;fontStyle=0;childLayout=stackLayout;horizontal=1;startSize=26;fillColor=none;horizontalStack=0;resizeParent=1;resizeParentMax=0;resizeLast=0;collapsible=1;marginBottom=0;whiteSpace=wrap;html=1;" vertex="1" parent="1">
          <mxGeometry x="70" y="367" width="140" height="240" as="geometry" />
        </mxCell>
        <mxCell id="LV8KwwP7L7RR2j52ug8A-16" value="&lt;b&gt;Order_ID&amp;nbsp;&lt;/b&gt;int primary key auto" style="text;strokeColor=none;fillColor=none;align=left;verticalAlign=top;spacingLeft=4;spacingRight=4;overflow=hidden;rotatable=0;points=[[0,0.5],[1,0.5]];portConstraint=eastwest;whiteSpace=wrap;html=1;" vertex="1" parent="LV8KwwP7L7RR2j52ug8A-15">
          <mxGeometry y="26" width="140" height="35" as="geometry" />
        </mxCell>
        <mxCell id="LV8KwwP7L7RR2j52ug8A-17" value="&lt;b&gt;Customer_ID &lt;/b&gt;int , fk" style="text;strokeColor=none;fillColor=none;align=left;verticalAlign=top;spacingLeft=4;spacingRight=4;overflow=hidden;rotatable=0;points=[[0,0.5],[1,0.5]];portConstraint=eastwest;whiteSpace=wrap;html=1;" vertex="1" parent="LV8KwwP7L7RR2j52ug8A-15">
          <mxGeometry y="61" width="140" height="26" as="geometry" />
        </mxCell>
        <mxCell id="LV8KwwP7L7RR2j52ug8A-18" value="&lt;b&gt;Product_ID &lt;/b&gt;int , fk" style="text;strokeColor=none;fillColor=none;align=left;verticalAlign=top;spacingLeft=4;spacingRight=4;overflow=hidden;rotatable=0;points=[[0,0.5],[1,0.5]];portConstraint=eastwest;whiteSpace=wrap;html=1;" vertex="1" parent="LV8KwwP7L7RR2j52ug8A-15">
          <mxGeometry y="87" width="140" height="26" as="geometry" />
        </mxCell>
        <mxCell id="LV8KwwP7L7RR2j52ug8A-19" value="&lt;b&gt;Actual_selling_price &lt;/b&gt;float default 0" style="text;strokeColor=none;fillColor=none;align=left;verticalAlign=top;spacingLeft=4;spacingRight=4;overflow=hidden;rotatable=0;points=[[0,0.5],[1,0.5]];portConstraint=eastwest;whiteSpace=wrap;html=1;" vertex="1" parent="LV8KwwP7L7RR2j52ug8A-15">
          <mxGeometry y="113" width="140" height="34" as="geometry" />
        </mxCell>
        <mxCell id="LV8KwwP7L7RR2j52ug8A-20" value="&lt;b&gt;Commission &lt;/b&gt;float default 0" style="text;strokeColor=none;fillColor=none;align=left;verticalAlign=top;spacingLeft=4;spacingRight=4;overflow=hidden;rotatable=0;points=[[0,0.5],[1,0.5]];portConstraint=eastwest;whiteSpace=wrap;html=1;" vertex="1" parent="LV8KwwP7L7RR2j52ug8A-15">
          <mxGeometry y="147" width="140" height="35" as="geometry" />
        </mxCell>
        <mxCell id="LV8KwwP7L7RR2j52ug8A-21" value="&lt;b&gt;Sales_tax &lt;/b&gt;float default 0" style="text;strokeColor=none;fillColor=none;align=left;verticalAlign=top;spacingLeft=4;spacingRight=4;overflow=hidden;rotatable=0;points=[[0,0.5],[1,0.5]];portConstraint=eastwest;whiteSpace=wrap;html=1;" vertex="1" parent="LV8KwwP7L7RR2j52ug8A-15">
          <mxGeometry y="182" width="140" height="32" as="geometry" />
        </mxCell>
        <mxCell id="LV8KwwP7L7RR2j52ug8A-22" value="&lt;b&gt;Sales_date &lt;/b&gt;date" style="text;strokeColor=none;fillColor=none;align=left;verticalAlign=top;spacingLeft=4;spacingRight=4;overflow=hidden;rotatable=0;points=[[0,0.5],[1,0.5]];portConstraint=eastwest;whiteSpace=wrap;html=1;" vertex="1" parent="LV8KwwP7L7RR2j52ug8A-15">
          <mxGeometry y="214" width="140" height="26" as="geometry" />
        </mxCell>
        <mxCell id="LV8KwwP7L7RR2j52ug8A-23" value="sản phẩn" style="text;html=1;align=center;verticalAlign=middle;resizable=0;points=[];autosize=1;strokeColor=none;fillColor=none;" vertex="1" parent="1">
          <mxGeometry x="332" y="154" width="67" height="26" as="geometry" />
        </mxCell>
        <mxCell id="LV8KwwP7L7RR2j52ug8A-24" value="khách hàng" style="text;html=1;align=center;verticalAlign=middle;resizable=0;points=[];autosize=1;strokeColor=none;fillColor=none;" vertex="1" parent="1">
          <mxGeometry x="-117" y="210" width="80" height="26" as="geometry" />
        </mxCell>
        <mxCell id="LV8KwwP7L7RR2j52ug8A-26" value="" style="endArrow=block;startArrow=block;endFill=1;startFill=1;html=1;rounded=0;entryX=0.009;entryY=1.027;entryDx=0;entryDy=0;entryPerimeter=0;exitX=1;exitY=0;exitDx=0;exitDy=0;" edge="1" parent="1" source="LV8KwwP7L7RR2j52ug8A-15" target="LV8KwwP7L7RR2j52ug8A-10">
          <mxGeometry width="160" relative="1" as="geometry">
            <mxPoint x="71" y="370" as="sourcePoint" />
            <mxPoint x="231" y="370" as="targetPoint" />
          </mxGeometry>
        </mxCell>
        <mxCell id="LV8KwwP7L7RR2j52ug8A-27" value="" style="endArrow=block;startArrow=block;endFill=1;startFill=1;html=1;rounded=0;exitX=0.956;exitY=1.123;exitDx=0;exitDy=0;exitPerimeter=0;entryX=0;entryY=0;entryDx=0;entryDy=0;" edge="1" parent="1" target="LV8KwwP7L7RR2j52ug8A-15">
          <mxGeometry width="160" relative="1" as="geometry">
            <mxPoint x="184.83999999999992" y="287.198" as="sourcePoint" />
            <mxPoint x="231" y="370" as="targetPoint" />
          </mxGeometry>
        </mxCell>
        <mxCell id="LV8KwwP7L7RR2j52ug8A-28" value="&lt;b&gt;Purchase_Order&lt;/b&gt;" style="swimlane;fontStyle=0;childLayout=stackLayout;horizontal=1;startSize=26;fillColor=none;horizontalStack=0;resizeParent=1;resizeParentMax=0;resizeLast=0;collapsible=1;marginBottom=0;whiteSpace=wrap;html=1;" vertex="1" parent="1">
          <mxGeometry x="-152" y="428" width="140" height="144" as="geometry" />
        </mxCell>
        <mxCell id="LV8KwwP7L7RR2j52ug8A-29" value="&lt;b&gt;Order_ID &lt;/b&gt;int , fk" style="text;strokeColor=none;fillColor=none;align=left;verticalAlign=top;spacingLeft=4;spacingRight=4;overflow=hidden;rotatable=0;points=[[0,0.5],[1,0.5]];portConstraint=eastwest;whiteSpace=wrap;html=1;" vertex="1" parent="LV8KwwP7L7RR2j52ug8A-28">
          <mxGeometry y="26" width="140" height="26" as="geometry" />
        </mxCell>
        <mxCell id="LV8KwwP7L7RR2j52ug8A-30" value="&lt;b&gt;Purchase_price &lt;/b&gt;float default 0" style="text;strokeColor=none;fillColor=none;align=left;verticalAlign=top;spacingLeft=4;spacingRight=4;overflow=hidden;rotatable=0;points=[[0,0.5],[1,0.5]];portConstraint=eastwest;whiteSpace=wrap;html=1;" vertex="1" parent="LV8KwwP7L7RR2j52ug8A-28">
          <mxGeometry y="52" width="140" height="32" as="geometry" />
        </mxCell>
        <mxCell id="LV8KwwP7L7RR2j52ug8A-31" value="&lt;b&gt;Purchase_date &lt;/b&gt;date" style="text;strokeColor=none;fillColor=none;align=left;verticalAlign=top;spacingLeft=4;spacingRight=4;overflow=hidden;rotatable=0;points=[[0,0.5],[1,0.5]];portConstraint=eastwest;whiteSpace=wrap;html=1;" vertex="1" parent="LV8KwwP7L7RR2j52ug8A-28">
          <mxGeometry y="84" width="140" height="26" as="geometry" />
        </mxCell>
        <mxCell id="LV8KwwP7L7RR2j52ug8A-32" value="&lt;b&gt;Status &lt;/b&gt;vachar(255) not null" style="text;strokeColor=none;fillColor=none;align=left;verticalAlign=top;spacingLeft=4;spacingRight=4;overflow=hidden;rotatable=0;points=[[0,0.5],[1,0.5]];portConstraint=eastwest;whiteSpace=wrap;html=1;" vertex="1" parent="LV8KwwP7L7RR2j52ug8A-28">
          <mxGeometry y="110" width="140" height="34" as="geometry" />
        </mxCell>
        <mxCell id="LV8KwwP7L7RR2j52ug8A-33" value="" style="endArrow=block;startArrow=block;endFill=1;startFill=1;html=1;rounded=0;exitX=1;exitY=0;exitDx=0;exitDy=0;entryX=0.003;entryY=0.031;entryDx=0;entryDy=0;entryPerimeter=0;" edge="1" parent="1" source="LV8KwwP7L7RR2j52ug8A-28" target="LV8KwwP7L7RR2j52ug8A-17">
          <mxGeometry width="160" relative="1" as="geometry">
            <mxPoint x="19" y="473" as="sourcePoint" />
            <mxPoint x="179" y="473" as="targetPoint" />
          </mxGeometry>
        </mxCell>
        <mxCell id="LV8KwwP7L7RR2j52ug8A-34" value="đơn hàng" style="text;html=1;align=center;verticalAlign=middle;resizable=0;points=[];autosize=1;strokeColor=none;fillColor=none;" vertex="1" parent="1">
          <mxGeometry x="103" y="341" width="69" height="26" as="geometry" />
        </mxCell>
        <mxCell id="LV8KwwP7L7RR2j52ug8A-35" value="đơn hàng mua" style="text;html=1;align=center;verticalAlign=middle;resizable=0;points=[];autosize=1;strokeColor=none;fillColor=none;" vertex="1" parent="1">
          <mxGeometry x="-133" y="409" width="96" height="26" as="geometry" />
        </mxCell>
        <mxCell id="LV8KwwP7L7RR2j52ug8A-40" value="&lt;b&gt;Customer-sales_order&lt;/b&gt;" style="swimlane;fontStyle=0;childLayout=stackLayout;horizontal=1;startSize=26;fillColor=none;horizontalStack=0;resizeParent=1;resizeParentMax=0;resizeLast=0;collapsible=1;marginBottom=0;whiteSpace=wrap;html=1;" vertex="1" parent="1">
          <mxGeometry x="49" y="210" width="140" height="78" as="geometry" />
        </mxCell>
        <mxCell id="LV8KwwP7L7RR2j52ug8A-41" value="&lt;b&gt;Customer_ID &lt;/b&gt;int ,fk" style="text;strokeColor=none;fillColor=none;align=left;verticalAlign=top;spacingLeft=4;spacingRight=4;overflow=hidden;rotatable=0;points=[[0,0.5],[1,0.5]];portConstraint=eastwest;whiteSpace=wrap;html=1;" vertex="1" parent="LV8KwwP7L7RR2j52ug8A-40">
          <mxGeometry y="26" width="140" height="26" as="geometry" />
        </mxCell>
        <mxCell id="LV8KwwP7L7RR2j52ug8A-42" value="&lt;b&gt;Order_ID &lt;/b&gt;int , fk" style="text;strokeColor=none;fillColor=none;align=left;verticalAlign=top;spacingLeft=4;spacingRight=4;overflow=hidden;rotatable=0;points=[[0,0.5],[1,0.5]];portConstraint=eastwest;whiteSpace=wrap;html=1;" vertex="1" parent="LV8KwwP7L7RR2j52ug8A-40">
          <mxGeometry y="52" width="140" height="26" as="geometry" />
        </mxCell>
        <mxCell id="LV8KwwP7L7RR2j52ug8A-44" value="" style="endArrow=block;startArrow=block;endFill=1;startFill=1;html=1;rounded=0;exitX=1.02;exitY=1.083;exitDx=0;exitDy=0;exitPerimeter=0;entryX=0.014;entryY=1.192;entryDx=0;entryDy=0;entryPerimeter=0;" edge="1" parent="1" source="LV8KwwP7L7RR2j52ug8A-14">
          <mxGeometry width="160" relative="1" as="geometry">
            <mxPoint x="19" y="473" as="sourcePoint" />
            <mxPoint x="52.960000000000036" y="288.99199999999996" as="targetPoint" />
          </mxGeometry>
        </mxCell>
        <mxCell id="LV8KwwP7L7RR2j52ug8A-45" value="n" style="text;html=1;align=center;verticalAlign=middle;resizable=0;points=[];autosize=1;strokeColor=none;fillColor=none;" vertex="1" parent="1">
          <mxGeometry x="65" y="336" width="25" height="26" as="geometry" />
        </mxCell>
        <mxCell id="LV8KwwP7L7RR2j52ug8A-46" value="1" style="text;html=1;align=center;verticalAlign=middle;resizable=0;points=[];autosize=1;strokeColor=none;fillColor=none;" vertex="1" parent="1">
          <mxGeometry x="146" y="282" width="25" height="26" as="geometry" />
        </mxCell>
        <mxCell id="LV8KwwP7L7RR2j52ug8A-47" value="n" style="text;html=1;align=center;verticalAlign=middle;resizable=0;points=[];autosize=1;strokeColor=none;fillColor=none;" vertex="1" parent="1">
          <mxGeometry x="5" y="350" width="25" height="26" as="geometry" />
        </mxCell>
        <mxCell id="LV8KwwP7L7RR2j52ug8A-48" value="1" style="text;html=1;align=center;verticalAlign=middle;resizable=0;points=[];autosize=1;strokeColor=none;fillColor=none;" vertex="1" parent="1">
          <mxGeometry x="44" y="289" width="25" height="26" as="geometry" />
        </mxCell>
      </root>
    </mxGraphModel>
  </diagram>
</mxfile>
